<svg xmlns="http://www.w3.org/2000/svg" xmlns:xlink="http://www.w3.org/1999/xlink" class="pointer-events-none" width="30" height="30" viewBox="0 0 30 30">
  <style>
    .st3 {
      fill: #fafafa
    }
  </style>
  <path fill="none" d="M0 0h30v30H0V0z" />
  <path fill="#ef4444"
    d="M8.8 4.2c6-3.5 13.6-1.4 17.1 4.6s1.4 13.6-4.6 17.1-13.7 1.3-17.1-4.6c-1-1.8-1.6-3.8-1.7-5.8v-.8C2.6 10.3 5 6.3 8.8 4.2z" />
  <defs>
    <path id="SVGID_1_"
      d="M8.7 4.2c6-3.5 13.6-1.4 17.1 4.6s1.4 13.6-4.6 17.1-13.6 1.3-17-4.7c-1-1.8-1.6-3.8-1.7-5.8v-.8C2.6 10.3 5 6.3 8.7 4.2z" />
  </defs>
  <clipPath id="SVGID_00000107562728698547444740000002018323434304288406_">
    <use xlink:href="#SVGID_1_" overflow="visible" />
  </clipPath>
  <g clip-path="url(#SVGID_00000107562728698547444740000002018323434304288406_)">
    <path
      d="M-2.4 4.4h34.9V6H-2.4zM-2.4 8.3h34.9v1.6H-2.4zM-2.4 12.2h34.9v1.6H-2.4zM-2.4 16.1h34.9v1.6H-2.4zM-2.4 20.1h34.9v1.6H-2.4zM-2.4 24h34.9v1.6H-2.4z"
      class="st3" />
  </g>
  <defs>
    <path id="SVGID_00000036242657827200396100000016714255590971786171_"
      d="M8.7 4.2c6-3.5 13.6-1.4 17.1 4.6s1.4 13.6-4.6 17.1-13.6 1.3-17-4.7c-1-1.8-1.6-3.8-1.7-5.8v-.8C2.6 10.3 5 6.3 8.7 4.2z" />
  </defs>
  <clipPath id="SVGID_00000149377041489421619700000005079631619363811503_">
    <use xlink:href="#SVGID_00000036242657827200396100000016714255590971786171_" overflow="visible" />
  </clipPath>
  <path fill="#1e3a8a" d="M-1.2 2.5H15v13.6H-1.2z"
    clip-path="url(#SVGID_00000149377041489421619700000005079631619363811503_)" />
  <path
    d="m12.8 14.9-.4.3.1-.5-.4-.4.5-.1.2-.5.3.5.5.1-.4.4.1.5zM10.4 14.9l-.5.3.1-.5-.4-.4.5-.1.3-.5.2.5.5.1-.4.4.1.5zM7.9 14.9l-.5.3.1-.5-.4-.4.6-.1.2-.5.2.5.6.1-.4.4.1.5zM5.4 14.9l-.4.3.1-.5-.4-.4.5-.1.2-.5.3.5.5.1-.4.4.1.5zM12.8 12.7l-.4.2.1-.5-.4-.4.5-.1.2-.4.3.4.5.1-.4.4.1.5zM10.4 12.7l-.5.2.1-.5-.4-.4.5-.1.3-.4.2.4.5.1-.4.4.1.5zM7.9 12.7l-.5.2.1-.5-.4-.4.6-.1.2-.4.2.4.6.1-.4.4.1.5zM5.4 12.7l-.4.2.1-.5-.4-.4.5-.1.2-.4.3.4.5.1-.4.4.1.5zM12.8 10.4l-.4.2.1-.5-.4-.4h.5l.2-.5.3.5h.5l-.4.4.1.5zM10.4 10.4l-.5.2.1-.5-.4-.4h.5l.3-.5.2.5h.5l-.4.4.1.5zM7.9 10.4l-.5.2.1-.5-.4-.4h.6l.2-.5.2.5h.6l-.4.4.1.5zM5.4 10.4l-.4.2.1-.5-.4-.3.5-.1.2-.5.3.5.5.1-.4.3.1.5zM12.8 8.1l-.4.3.1-.6-.4-.3.5-.1.2-.5.3.5.5.1-.4.3.1.6zM10.4 8.1l-.5.3.1-.6-.4-.3.5-.1.3-.5.2.5.5.1-.4.3.1.6zM7.9 8.1l-.5.3.1-.6-.4-.3.6-.1.2-.5.2.5.6.1-.4.3.1.6zM12.8 5.9l-.4.2.1-.5-.4-.4.5-.1.2-.4.3.4.5.1-.4.4.1.5zM10.4 5.9l-.5.2.1-.5-.4-.4.5-.1.3-.4.2.4.5.1-.4.4.1.5z"
    class="st3" />
</svg>